<svg xmlns="http://www.w3.org/2000/svg" width="17" height="24" viewBox="0 0 141.148 141.148">
  <g id="ionic_1_" data-name="ionic (1)" transform="translate(0 117.148)">
    <path id="Path_1" data-name="Path 1" d="M38.7,28.5h0a32.17,32.17,0,1,0,32.164,32.17A32.2,32.2,0,0,0,38.7,28.5Zm46.167,2.864A14.668,14.668,0,1,0,70.2,16.7,14.671,14.671,0,0,0,84.872,31.363Z" transform="translate(31.869 -107.249)" fill="#e9e9e9"/>
    <path id="Path_2" data-name="Path 2" d="M70.574,141.148a70.637,70.637,0,0,0,70.574-70.574,69.907,69.907,0,0,0-6.34-29.247l-.006-.006-.606-1.353-.994,1.106a22.138,22.138,0,0,1-8.851,6.093l-.935.359.388.912a56.374,56.374,0,0,1,4.411,22.048v.059A57.659,57.659,0,1,1,70.568,12.9a57,57,0,0,1,24.7,5.569l.912.441L96.568,18a22.246,22.246,0,0,1,6.463-8.51l.041-.035,1.159-.935-1.323-.688A69.072,69.072,0,0,0,70.738,0h-.165a70.574,70.574,0,1,0,0,141.148Z" transform="translate(0 -117.148)" fill="#e9e9e9"/>
  </g>
</svg>
