<svg xmlns="http://www.w3.org/2000/svg" width="17" height="24" viewBox="0 0 14.005 14.005">
  <g id="ionic_1_" data-name="ionic (1)" transform="translate(0 -9.995)">
    <path id="Path_1" data-name="Path 1" d="M9.722,4.655h0a3.192,3.192,0,1,0,3.191,3.192A3.2,3.2,0,0,0,9.722,4.655Zm4.581.284a1.455,1.455,0,1,0-1.455-1.455A1.456,1.456,0,0,0,14.3,4.939Z" transform="translate(-2.719 9.15)" fill="#504e70"/>
    <path id="Path_2" data-name="Path 2" d="M7,14.005a7.009,7.009,0,0,0,7-7,6.936,6.936,0,0,0-.629-2.9h0l-.06-.134-.1.11a2.2,2.2,0,0,1-.878.6l-.093.036.039.09a5.594,5.594,0,0,1,.438,2.188V7A5.721,5.721,0,1,1,7,1.28a5.656,5.656,0,0,1,2.451.553l.09.044.039-.09a2.207,2.207,0,0,1,.641-.844l0,0,.115-.093L10.211.777A6.854,6.854,0,0,0,7.019,0H7A7,7,0,0,0,7,14.005Z" transform="translate(0 9.995)" fill="#504e70"/>
  </g>
</svg>
